<svg width="40" height="40" version="1.1" viewBox="0 0 40 40" xmlns="http://www.w3.org/2000/svg">
 <g transform="translate(-866.6,-3.7)">
  <path d="m906.6 23.824c0-11.109-8.9598-20.124-20-20.124-11.04 0-20 9.0155-20 20.124 0 10.052 7.312 18.383 16.89 19.876v-14.073h-5.1081v-5.8031h5.1081v-4.4352c0-5.0363 2.966-7.8342 7.5386-7.8342 2.1833 0 4.449 0.41451 4.449 0.41451v4.9119h-2.5129c-2.4923 0-3.275 1.5751-3.275 3.1503v3.772h5.5613l-0.88569 5.8031h-4.6756v14.073c9.5984-1.4715 16.91-9.8031 16.91-19.855z" fill="#fff" stroke-width=".20661"/>
 </g>
</svg>
